<?xml version="1.0" encoding="UTF-8"?>
<!DOCTYPE svg PUBLIC "-//W3C//DTD SVG 1.1//EN" "http://www.w3.org/Graphics/SVG/1.1/DTD/svg11.dtd">
<!-- Creator: CorelDRAW 2020 (64-Bit Evaluation Version) -->
<svg xmlns="http://www.w3.org/2000/svg" xml:space="preserve" width="100mm" height="100mm" version="1.1" style="shape-rendering:geometricPrecision; text-rendering:geometricPrecision; image-rendering:optimizeQuality; fill-rule:evenodd; clip-rule:evenodd"
viewBox="0 0 10000 10000"
 xmlns:xlink="http://www.w3.org/1999/xlink"
 xmlns:xodm="http://www.corel.com/coreldraw/odm/2003">
 <defs>
  <style type="text/css">
   <![CDATA[
    .fil0 {fill:black}
   ]]>
  </style>
 </defs>
 <g id="Layer_x0020_1">
  <metadata id="CorelCorpID_0Corel-Layer"/>
  <path class="fil0" d="M5439.34 3476.12l0 533.84 803.7 0c-1.24,56.21 -25.93,242.54 -29.37,322.62 -3.63,84.37 -25.54,234.37 -29.33,322.65 -3.17,73.63 -17.56,145.71 -17.56,222.97l-727.44 0 0 2604.7 -1038.36 0 0 -2581.24c0,-13.51 -4.08,-17.6 -17.6,-17.6l-522.11 0 0 -874.1 539.71 0 0 -703.97c0,-155.07 26.22,-323.79 70.33,-434.18 100.35,-251.12 276.1,-410.5 535.94,-484.81 131.28,-37.55 278.24,-66.58 443.82,-66.58l791.97 0 0 897.57 -492.78 0c-88.53,0 -186.77,4.37 -238.26,43.33 -55.47,41.99 -72.66,120.49 -72.66,214.8zm-4417.44 1319.95c0,380.03 23.57,689.04 114.96,1052.46 62.72,249.44 147.33,512.36 262.45,740.73 14.81,29.4 26.98,52.4 41.14,82.05 129.88,272.11 298.92,527.01 489.4,760.15l58.55 70.51c13.33,13.99 14.87,17.92 26.66,32 11.02,13.16 20.72,19.63 31.74,32.8l448.89 431.07c179.24,156.33 385.13,288.74 593.07,404.22 112.23,62.33 214.84,114.12 336.38,168.14 474.26,210.78 904.29,295.58 1416.13,337.94 38.35,3.18 83.81,-1.06 123.08,0.12 39.09,1.17 74.33,8.72 123.03,6.09l234.57 -11.83c225.37,0.61 632.27,-87.02 849.46,-147.84 63.45,-17.75 126.41,-39.52 191.18,-61.08 65.01,-21.63 121.9,-43.63 183.83,-68.43 109.26,-43.75 240.63,-97.38 342.19,-156.44l164 -88.26c53.61,-28.99 105.34,-62.33 157.26,-95 126.1,-79.36 245.38,-167.67 362.33,-259.52l137.45 -114.79c14.54,-11.14 20.1,-17.12 33.67,-30.88l401.32 -414.12c111.25,-137.73 223.73,-278.12 314.05,-430.98 62.48,-105.75 128.95,-210.6 183.74,-320.78 492.24,-989.89 574.86,-2077.02 226.58,-3130.48 -46.5,-140.66 -98.72,-272.67 -162.14,-401.04 -7.56,-15.3 -11.47,-27.88 -19.45,-45.09 -97.12,-209.61 -238.68,-445.42 -376.04,-627.12l-342.13 -408.77c-31.89,-31.86 -56.89,-67.11 -92.86,-94.87 -34.92,-26.96 -62.13,-63.93 -94.92,-92.81 -13.47,-11.87 -18.6,-13.06 -32.34,-26.33 -190.25,-183.72 -463.4,-376.6 -688.84,-502.05 -70.69,-39.33 -173.35,-101.14 -244.81,-130.64 -34.82,-14.36 -54.85,-27.37 -88,-41.05l-172.68 -73.72c-186.96,-74.73 -378.1,-132.87 -574.61,-182.15 -130.21,-32.66 -274.78,-57.92 -422.44,-76.22 -34.34,-4.25 -71.63,-7.26 -110.8,-12.39 -114.05,-14.93 -244.81,-15.55 -359.57,-21.75 -44.89,-2.42 -82.12,2.65 -117.66,5.59 -38.88,3.21 -83.52,-1.85 -122.92,0.28l-113.93 9.26c-40.95,6 -77.07,5.17 -118.22,10.84 -293.99,40.52 -585.88,88.17 -864.84,191.12l-141.68 51.92c-126.03,46.55 -314.75,124.07 -428.5,193.34 -79.22,48.23 -165.88,86.32 -242.95,138.37 -172.59,116.54 -352.89,227.01 -505.35,368.75l-99.85 87.87c-11.91,11.78 -19.88,21.17 -32.08,32.45l-278.8 284.38c-126.4,135.86 -246.34,307.46 -348.69,460.89 -67.39,101.03 -132.57,209.3 -186.55,317.96 -6.61,13.3 -11.56,24.39 -20.09,38.59 -9.69,16.17 -14.89,23.33 -22.7,41.82l-117.26 258.19c-26.6,61.64 -45.8,118.97 -69.59,182.66 -95.27,254.95 -158.22,527.83 -197.61,805.57 -20.41,143.94 -36.21,307.84 -36.21,468.3z"/>
 </g>
</svg>
