<?xml version="1.0" encoding="UTF-8"?>
<!DOCTYPE svg PUBLIC "-//W3C//DTD SVG 1.1//EN" "http://www.w3.org/Graphics/SVG/1.1/DTD/svg11.dtd">
<!-- Creator: CorelDRAW 2020 (64-Bit Evaluation Version) -->
<svg xmlns="http://www.w3.org/2000/svg" xml:space="preserve" width="100mm" height="100mm" version="1.1" style="shape-rendering:geometricPrecision; text-rendering:geometricPrecision; image-rendering:optimizeQuality; fill-rule:evenodd; clip-rule:evenodd"
viewBox="0 0 10000 10000"
 xmlns:xlink="http://www.w3.org/1999/xlink"
 xmlns:xodm="http://www.corel.com/coreldraw/odm/2003">
 <defs>
  <style type="text/css">
   <![CDATA[
    .fil0 {fill:#281F22}
   ]]>
  </style>
 </defs>
 <g id="Layer_x0020_1">
  <metadata id="CorelCorpID_0Corel-Layer"/>
  <g id="_2778592936208">
   <path class="fil0" d="M7278.63 5723.83l27.07 0 0 460.09 -27.07 0 0 189.44 -27.06 0 0 162.39 -27.07 0 0 81.18 -27.06 0 0 54.13 -27.06 0 0 54.13 -27.07 0 0 54.13 -27.06 0 0 27.06 -27.07 0 0 54.13 -27.06 0 0 27.06 -27.06 0 0 27.07 -27.07 0 0 27.05 -27.06 0 0 27.07 -27.07 0 0 27.06 -27.05 0 0 27.07 -27.07 0 0 27.06 -27.06 0 0 27.06 -54.13 0 0 27.07 -27.06 0 0 27.06 -54.13 0 0 27.07 -81.19 0 0 27.06 -54.13 0 0 27.06 -81.19 0 0 27.07 -162.38 0 0 27.06 -2652.23 0 0 -27.06 -108.25 0 0 -27.07 -108.25 0 0 -27.06 -81.19 0 0 -27.06 -54.13 0 0 -27.07 -54.13 0 0 -27.06 -27.06 0 0 -27.07 -54.13 0 0 -27.06 -27.07 0 0 -27.06 -27.05 0 0 -27.07 -27.07 0 0 -27.06 -27.06 0 0 -27.07 -27.07 0 0 -27.05 -27.06 0 0 -27.07 -54.13 0 0 -54.13 -27.06 0 0 -27.06 -27.07 0 0 -54.13 -27.06 0 0 -54.13 -27.06 0 0 -54.12 -27.07 0 0 -54.13 -27.06 0 0 -108.25 -27.07 0 0 -1623.81 -27.05 0 0 -1163.74 27.05 0 0 -135.32 27.07 0 0 -81.18 27.06 0 0 -81.19 27.07 0 0 -54.13 27.06 0 0 -54.13 27.06 0 0 -27.06 27.07 0 0 -54.13 27.06 0 0 -27.07 27.07 0 0 -27.05 27.06 0 0 -27.07 27.06 0 0 -27.06 27.07 0 0 -27.07 27.06 0 0 -27.06 27.07 0 0 -27.06 27.05 0 0 -27.07 27.07 0 0 -27.06 54.13 0 0 -27.07 27.06 0 0 -27.06 81.19 0 0 -27.06 54.13 0 0 -27.07 81.19 0 0 -27.06 135.32 0 0 -27.07 378.88 0 0 -27.05 784.85 0 0 27.05 27.06 0 0 -27.05 54.13 0 0 27.05 27.06 0 0 -27.05 27.07 0 0 27.05 54.12 0 0 -27.05 54.13 0 0 27.05 27.07 0 0 -27.05 81.18 0 0 27.05 378.89 0 0 -27.05 108.26 0 0 27.05 757.78 0 0 27.07 81.19 0 0 27.06 81.19 0 0 27.07 81.19 0 0 27.06 54.12 0 0 27.06 54.13 0 0 27.07 54.13 0 0 27.06 27.06 0 0 27.07 27.07 0 0 27.06 54.13 0 0 27.06 27.05 0 0 27.07 27.07 0 0 27.06 27.06 0 0 27.07 27.07 0 0 54.12 27.06 0 0 27.06 27.06 0 0 27.07 27.07 0 0 54.12 27.06 0 0 54.13 27.07 0 0 54.13 27.06 0 0 81.19 27.06 0 0 81.19 27.07 0 0 108.25 27.06 0 0 270.64 27.07 0 0 514.21 -27.07 0 0 1244.91zm-2300.4 -4519.6l-405.95 0 0 27.06 -189.44 0 0 27.07 -135.32 0 0 27.06 -108.26 0 0 27.07 -81.19 0 0 27.05 -108.26 0 0 27.07 -81.18 0 0 27.06 -81.2 0 0 27.07 -81.19 0 0 27.06 -54.12 0 0 27.06 -81.2 0 0 27.07 -54.12 0 0 27.06 -54.13 0 0 27.07 -54.12 0 0 27.05 -54.13 0 0 27.07 -54.13 0 0 27.07 -54.13 0 0 27.06 -54.13 0 0 27.07 -27.05 0 0 27.05 -54.13 0 0 27.07 -54.13 0 0 27.06 -27.06 0 0 27.07 -54.13 0 0 27.06 -27.07 0 0 27.06 -54.12 0 0 27.07 -27.07 0 0 27.06 -54.13 0 0 27.07 -27.05 0 0 27.06 -27.07 0 0 27.06 -54.13 0 0 27.07 -27.06 0 0 27.06 -27.06 0 0 27.06 -27.07 0 0 27.06 -27.06 0 0 27.07 -27.07 0 0 27.06 -54.12 0 0 27.07 -27.07 0 0 27.06 -27.06 0 0 27.06 -27.06 0 0 27.07 -27.06 0 0 27.06 -27.07 0 0 27.06 -27.06 0 0 27.07 -27.07 0 0 27.06 -27.06 0 0 27.07 -27.06 0 0 27.06 -27.07 0 0 27.06 -27.06 0 0 27.06 -27.06 0 0 54.13 -27.07 0 0 27.06 -27.06 0 0 27.07 -27.07 0 0 27.06 -27.06 0 0 54.13 -27.06 0 0 27.06 -27.06 0 0 27.07 -27.07 0 0 27.06 -27.06 0 0 54.12 -27.06 0 0 27.07 -27.07 0 0 54.13 -27.06 0 0 27.06 -27.07 0 0 54.13 -54.12 0 0 81.19 -27.07 0 0 27.06 -27.06 0 0 54.13 -27.07 0 0 54.12 -27.05 0 0 54.13 -54.13 0 0 54.13 -27.07 0 0 81.19 -27.06 0 0 27.07 -27.06 0 0 81.19 -27.07 0 0 27.06 -27.06 0 0 108.25 -27.07 0 0 54.13 -27.06 0 0 54.13 -27.06 0 0 108.25 -27.07 0 0 54.13 -27.06 0 0 108.25 -27.07 0 0 54.13 -27.05 0 0 135.32 -27.07 0 0 135.31 -27.06 0 0 162.39 -27.07 0 0 162.37 -27.06 0 0 27.07 27.06 0 0 27.06 -27.06 0 0 676.59 27.06 0 0 243.57 27.07 0 0 135.32 27.06 0 0 135.32 27.07 0 0 135.32 27.05 0 0 81.18 27.07 0 0 135.32 27.06 0 0 54.13 27.07 0 0 81.19 27.06 0 0 108.26 27.06 0 0 54.13 27.07 0 0 54.12 27.06 0 0 81.19 27.07 0 0 54.13 27.06 0 0 81.19 27.06 0 0 54.13 27.07 0 0 27.06 27.06 0 0 54.12 27.07 0 0 54.13 27.05 0 0 27.07 27.07 0 0 27.06 27.06 0 0 27.06 27.07 0 0 54.13 27.06 0 0 54.13 27.06 0 0 27.06 27.07 0 0 54.13 27.06 0 0 54.12 27.07 0 0 27.07 27.06 0 0 27.06 27.06 0 0 27.07 27.07 0 0 27.06 27.06 0 0 27.06 27.06 0 0 27.07 27.06 0 0 54.13 27.07 0 0 27.06 27.06 0 0 54.13 27.07 0 0 27.06 27.06 0 0 27.06 27.06 0 0 27.06 27.07 0 0 27.07 27.06 0 0 27.06 54.13 0 0 27.07 27.06 0 0 54.12 27.07 0 0 27.07 27.06 0 0 27.06 54.12 0 0 27.06 27.07 0 0 27.07 27.06 0 0 27.06 27.06 0 0 27.07 27.07 0 0 27.06 54.13 0 0 27.06 27.06 0 0 27.06 27.06 0 0 27.07 27.07 0 0 27.06 27.06 0 0 27.06 27.07 0 0 27.07 54.12 0 0 27.06 54.13 0 0 27.07 27.06 0 0 27.06 54.13 0 0 27.06 27.06 0 0 27.07 54.13 0 0 27.06 54.13 0 0 27.07 27.06 0 0 27.05 54.12 0 0 27.07 54.13 0 0 27.06 54.13 0 0 27.07 54.13 0 0 27.06 27.06 0 0 27.06 81.19 0 0 27.07 27.07 0 0 27.06 81.18 0 0 27.07 54.13 0 0 27.06 54.13 0 0 27.06 81.19 0 0 27.07 81.19 0 0 27.06 81.19 0 0 27.07 108.25 0 0 27.05 81.2 0 0 27.07 135.32 0 0 27.06 108.25 0 0 27.07 135.32 0 0 27.06 433.01 0 0 27.06 54.13 0 0 -27.06 270.63 0 0 27.06 108.26 0 0 -27.06 108.26 0 0 -27.06 216.5 0 0 -27.07 135.32 0 0 -27.06 162.38 0 0 -27.07 81.19 0 0 -27.05 108.26 0 0 -27.07 81.18 0 0 -27.06 81.2 0 0 -27.07 54.12 0 0 -27.06 81.19 0 0 -27.06 81.2 0 0 -27.07 54.12 0 0 -27.06 54.13 0 0 -27.07 54.12 0 0 -27.06 54.13 0 0 -27.06 54.13 0 0 -27.07 27.06 0 0 -27.06 81.2 0 0 -27.07 27.05 0 0 -27.05 54.13 0 0 -27.07 27.07 0 0 -27.06 54.12 0 0 -27.07 27.07 0 0 -27.06 54.13 0 0 -27.06 54.12 0 0 -27.07 27.07 0 0 -27.06 27.06 0 0 -27.07 54.12 0 0 -27.06 27.07 0 0 -27.06 27.06 0 0 -27.07 54.13 0 0 -27.06 27.06 0 0 -27.06 27.07 0 0 -27.06 27.06 0 0 -27.07 27.07 0 0 -27.06 27.06 0 0 -27.07 54.13 0 0 -27.06 27.06 0 0 -27.06 27.06 0 0 -27.07 27.06 0 0 -27.06 27.07 0 0 -27.06 27.06 0 0 -27.07 27.07 0 0 -27.06 27.06 0 0 -27.07 27.06 0 0 -54.12 27.07 0 0 -27.06 27.06 0 0 -27.07 27.06 0 0 -27.06 27.07 0 0 -27.06 27.06 0 0 -27.07 27.07 0 0 -27.06 27.06 0 0 -27.07 27.06 0 0 -54.12 27.06 0 0 -27.07 27.07 0 0 -27.06 27.06 0 0 -54.12 27.06 0 0 -27.07 27.07 0 0 -27.06 27.06 0 0 -54.13 27.07 0 0 -27.06 27.06 0 0 -54.13 27.06 0 0 -27.07 27.07 0 0 -54.12 27.06 0 0 -27.07 27.07 0 0 -54.13 27.05 0 0 -54.12 27.07 0 0 -54.13 27.06 0 0 -27.06 27.07 0 0 -54.13 27.06 0 0 -54.13 27.06 0 0 -54.12 27.07 0 0 -81.19 27.06 0 0 -54.13 27.07 0 0 -81.19 27.06 0 0 -54.13 27.06 0 0 -81.19 27.07 0 0 -81.19 27.06 0 0 -81.19 27.07 0 0 -108.25 27.05 0 0 -108.26 27.07 0 0 -108.25 27.06 0 0 -135.32 27.07 0 0 -216.5 27.06 0 0 -838.97 -27.06 0 0 -216.52 -27.07 0 0 -135.32 -27.06 0 0 -135.31 -27.07 0 0 -108.26 -27.05 0 0 -108.25 -27.07 0 0 -81.19 -27.06 0 0 -81.19 -27.07 0 0 -54.13 -27.06 0 0 -81.19 -27.06 0 0 -54.13 -27.07 0 0 -54.12 -27.06 0 0 -81.19 -27.07 0 0 -54.13 -27.06 0 0 -27.06 -27.06 0 0 -54.13 -27.07 0 0 -54.13 -27.06 0 0 -54.13 -27.07 0 0 -27.05 -27.05 0 0 -54.13 -27.07 0 0 -54.13 -27.06 0 0 -27.06 -27.07 0 0 -54.13 -27.06 0 0 -27.07 -27.06 0 0 -54.12 -27.07 0 0 -27.07 -27.06 0 0 -54.13 -27.07 0 0 -27.05 -27.06 0 0 -54.13 -27.06 0 0 -27.07 -27.07 0 0 -27.06 -27.06 0 0 -27.06 -27.06 0 0 -27.07 -27.06 0 0 -27.06 -27.07 0 0 -54.13 -27.06 0 0 -27.06 -27.07 0 0 -27.07 -27.06 0 0 -54.12 -27.06 0 0 -27.06 -27.07 0 0 -27.07 -27.06 0 0 -27.06 -27.06 0 0 -27.07 -54.13 0 0 -27.06 -27.07 0 0 -27.06 -27.06 0 0 -27.07 -27.06 0 0 -27.06 -27.06 0 0 -27.06 -27.07 0 0 -27.07 -27.06 0 0 -27.06 -27.06 0 0 -27.07 -54.13 0 0 -27.06 -27.07 0 0 -27.06 -27.06 0 0 -27.06 -27.06 0 0 -27.07 -54.13 0 0 -27.06 -27.07 0 0 -27.06 -27.05 0 0 -27.07 -54.13 0 0 -27.06 -27.07 0 0 -27.07 -27.06 0 0 -27.06 -54.13 0 0 -27.06 -27.06 0 0 -27.07 -54.13 0 0 -27.06 -27.06 0 0 -27.07 -54.13 0 0 -27.05 -54.12 0 0 -27.07 -27.07 0 0 -27.06 -54.13 0 0 -27.07 -54.12 0 0 -27.07 -54.13 0 0 -27.05 -54.13 0 0 -27.07 -54.13 0 0 -27.06 -54.12 0 0 -27.07 -81.19 0 0 -27.06 -54.13 0 0 -27.06 -81.19 0 0 -27.07 -81.19 0 0 -27.06 -108.25 0 0 -27.07 -108.26 0 0 -27.05 -81.19 0 0 -27.07 -108.26 0 0 -27.06 -135.32 0 0 -27.07 -189.44 0 0 -27.06 -405.95 0 0 -27.06 -162.38 0 0 27.06z"/>
   <path class="fil0" d="M6169.03 5182.57l27.06 0 0 27.06 -27.06 0 0 108.26 -27.07 0 0 108.25 -27.06 0 0 54.12 -27.06 0 0 81.2 -27.07 0 0 27.06 -27.06 0 0 54.13 -27.07 0 0 54.13 -27.06 0 0 27.05 -27.06 0 0 27.07 -27.07 0 0 27.07 -27.06 0 0 27.06 -27.07 0 0 27.07 -27.05 0 0 27.05 -27.07 0 0 27.07 -27.06 0 0 27.06 -27.07 0 0 27.07 -27.07 0 0 27.06 -27.05 0 0 27.06 -27.07 0 0 27.07 -54.13 0 0 27.06 -54.12 0 0 27.07 -54.13 0 0 27.05 -54.12 0 0 27.07 -81.2 0 0 27.07 -108.25 0 0 27.06 -433.02 0 0 -27.06 -81.19 0 0 -27.07 -108.26 0 0 -27.07 -54.12 0 0 -27.05 -81.19 0 0 -27.07 -27.06 0 0 -27.06 -54.13 0 0 -27.07 -27.07 0 0 -27.06 -54.12 0 0 -27.06 -27.07 0 0 -27.07 -27.06 0 0 -27.06 -27.07 0 0 -27.07 -27.05 0 0 -27.05 -27.07 0 0 -27.07 -27.06 0 0 -27.06 -27.07 0 0 -27.07 -27.06 0 0 -27.07 -27.06 0 0 -27.05 -27.07 0 0 -54.13 -27.06 0 0 -54.13 -27.07 0 0 -54.13 -27.06 0 0 -54.13 -27.06 0 0 -81.19 -27.07 0 0 -108.25 -27.06 0 0 -162.38 -27.06 0 0 -162.38 27.06 0 0 -135.32 27.06 0 0 -108.25 27.07 0 0 -81.2 27.06 0 0 -54.12 27.06 0 0 -54.13 27.07 0 0 -54.12 27.06 0 0 -54.13 27.07 0 0 -27.07 27.06 0 0 -54.12 27.06 0 0 -27.07 27.07 0 0 -27.06 27.06 0 0 -27.07 27.07 0 0 -27.05 27.05 0 0 -27.07 27.07 0 0 -27.06 27.06 0 0 -27.07 27.07 0 0 -27.06 27.07 0 0 -27.06 54.12 0 0 -27.07 27.06 0 0 -27.06 54.13 0 0 -27.07 54.13 0 0 -27.06 54.13 0 0 -27.06 54.12 0 0 -27.07 135.32 0 0 -27.06 81.19 0 0 -27.06 27.06 0 0 27.06 54.13 0 0 -27.06 216.51 0 0 27.06 108.25 0 0 27.06 81.19 0 0 27.07 81.2 0 0 27.06 54.12 0 0 27.06 54.13 0 0 27.07 27.06 0 0 27.06 54.13 0 0 27.07 54.13 0 0 27.06 27.05 0 0 27.06 27.07 0 0 27.07 27.07 0 0 27.06 27.06 0 0 27.07 27.07 0 0 27.05 27.05 0 0 27.07 27.07 0 0 27.06 27.06 0 0 27.07 27.07 0 0 54.12 27.06 0 0 27.07 27.06 0 0 54.13 27.07 0 0 54.12 27.06 0 0 27.07 27.07 0 0 54.13 27.06 0 0 81.18 27.06 0 0 81.19 27.07 0 0 162.39 27.06 0 0 135.32 -27.06 0 0 108.25zm-162.39 -1434.37l27.07 0 0 -54.13 27.06 0 0 -27.06 27.07 0 0 -27.06 27.06 0 0 -27.07 54.13 0 0 -27.06 135.31 0 0 27.06 54.13 0 0 27.07 54.13 0 0 54.12 27.06 0 0 54.13 27.06 0 0 108.26 -27.06 0 0 54.12 -27.06 0 0 54.13 -27.07 0 0 27.06 -27.06 0 0 27.06 -54.13 0 0 27.07 -162.38 0 0 -27.07 -27.06 0 0 -27.06 -27.06 0 0 -27.06 -27.07 0 0 -27.07 -27.06 0 0 -81.18 -27.07 0 0 -108.26zm-1271.98 -676.59l-838.97 0 0 27.07 -324.77 0 0 27.06 -81.18 0 0 27.07 -54.13 0 0 27.05 -54.13 0 0 27.07 -27.06 0 0 27.06 -54.13 0 0 27.07 -27.06 0 0 27.06 -27.07 0 0 27.06 -27.06 0 0 27.07 -27.07 0 0 54.13 -27.05 0 0 27.06 -27.07 0 0 54.13 -27.06 0 0 81.18 -27.07 0 0 108.26 -27.06 0 0 866.03 -27.06 0 0 1623.82 27.06 0 0 324.76 27.06 0 0 54.13 27.07 0 0 81.18 27.06 0 0 54.13 27.07 0 0 27.06 27.05 0 0 27.07 27.07 0 0 27.06 27.06 0 0 27.07 27.07 0 0 27.06 27.06 0 0 27.06 27.06 0 0 27.07 27.07 0 0 27.06 54.13 0 0 27.07 27.06 0 0 27.05 135.31 0 0 27.07 2949.93 0 0 -27.07 108.25 0 0 -27.05 54.13 0 0 -27.07 54.13 0 0 -27.06 27.06 0 0 -27.07 27.07 0 0 -27.06 27.06 0 0 -27.06 27.06 0 0 -27.07 27.07 0 0 -27.06 27.06 0 0 -54.13 27.07 0 0 -54.13 27.05 0 0 -54.12 27.07 0 0 -54.13 27.06 0 0 -108.25 27.07 0 0 -297.71 -27.07 0 0 -1813.25 27.07 0 0 -216.51 -27.07 0 0 -460.08 -27.06 0 0 -81.19 -27.07 0 0 -54.12 -27.05 0 0 -54.13 -27.07 0 0 -54.13 -27.06 0 0 -27.06 -27.07 0 0 -27.07 -27.06 0 0 -27.06 -27.06 0 0 -27.06 -27.07 0 0 -27.07 -27.06 0 0 -27.06 -54.13 0 0 -27.07 -54.13 0 0 -27.05 -54.12 0 0 -27.07 -81.19 0 0 -27.06 -216.51 0 0 -27.07 -216.51 0 0 -27.06 -1326.11 0 0 27.06z"/>
   <polygon class="fil0" points="4842.91,4262.4 4761.72,4262.4 4761.72,4289.47 4680.53,4289.47 4680.53,4316.53 4626.41,4316.53 4626.41,4343.6 4599.34,4343.6 4599.34,4370.67 4545.21,4370.67 4545.21,4397.72 4518.15,4397.72 4518.15,4424.79 4491.09,4424.79 4491.09,4451.85 4464.02,4451.85 4464.02,4478.92 4436.96,4478.92 4436.96,4505.98 4409.89,4505.98 4409.89,4533.04 4382.84,4533.04 4382.84,4587.17 4355.77,4587.17 4355.77,4641.29 4328.7,4641.29 4328.7,4668.36 4301.64,4668.36 4301.64,4722.49 4274.57,4722.49 4274.57,4776.61 4247.52,4776.61 4247.52,4884.87 4220.45,4884.87 4220.45,5182.57 4247.52,5182.57 4247.52,5317.89 4274.57,5317.89 4274.57,5372.01 4301.64,5372.01 4301.64,5426.14 4328.7,5426.14 4328.7,5480.26 4355.77,5480.26 4355.77,5507.33 4382.84,5507.33 4382.84,5561.46 4409.89,5561.46 4409.89,5588.52 4436.96,5588.52 4436.96,5615.58 4464.02,5615.58 4464.02,5642.65 4491.09,5642.65 4491.09,5669.71 4518.15,5669.71 4518.15,5696.78 4545.21,5696.78 4545.21,5723.83 4599.34,5723.83 4599.34,5750.9 4626.41,5750.9 4626.41,5777.97 4680.53,5777.97 4680.53,5805.03 4734.66,5805.03 4734.66,5832.1 4869.98,5832.1 4869.98,5859.15 5194.74,5859.15 5194.74,5832.1 5330.06,5832.1 5330.06,5805.03 5411.25,5805.03 5411.25,5777.97 5465.38,5777.97 5465.38,5750.9 5519.5,5750.9 5519.5,5723.83 5546.56,5723.83 5546.56,5696.78 5600.69,5696.78 5600.69,5669.71 5627.75,5669.71 5627.75,5642.65 5654.82,5642.65 5654.82,5615.58 5681.88,5615.58 5681.88,5561.46 5708.95,5561.46 5708.95,5534.39 5736,5534.39 5736,5480.26 5763.07,5480.26 5763.07,5453.21 5790.14,5453.21 5790.14,5399.07 5817.2,5399.07 5817.2,5317.89 5844.27,5317.89 5844.27,5209.63 5871.32,5209.63 5871.32,4884.87 5844.27,4884.87 5844.27,4776.61 5817.2,4776.61 5817.2,4695.42 5790.14,4695.42 5790.14,4641.29 5763.07,4641.29 5763.07,4587.17 5736,4587.17 5736,4560.11 5708.95,4560.11 5708.95,4505.98 5681.88,4505.98 5681.88,4478.92 5654.82,4478.92 5654.82,4451.85 5627.75,4451.85 5627.75,4424.79 5600.69,4424.79 5600.69,4397.72 5546.56,4397.72 5546.56,4370.67 5519.5,4370.67 5519.5,4343.6 5465.38,4343.6 5465.38,4316.53 5411.25,4316.53 5411.25,4289.47 5357.12,4289.47 5357.12,4262.4 5248.86,4262.4 5248.86,4235.35 4842.91,4235.35 "/>
  </g>
 </g>
</svg>
